<svg width="1600" height="960" viewBox="0 0 1600 960" fill="none" xmlns="http://www.w3.org/2000/svg">
<g clip-path="url(#clip0_1402_48)">
<rect width="1600" height="960" fill="white"/>
<g opacity="0.6" filter="url(#filter0_f_1402_48)">
<circle cx="1524" cy="180" r="353.401" transform="rotate(-141.051 1524 180)" fill="#E65C00"/>
</g>
<g opacity="0.8" filter="url(#filter1_f_1402_48)">
<ellipse cx="1183.45" cy="98.3964" rx="204.571" ry="204.187" transform="rotate(-141.051 1183.45 98.3964)" fill="#FFE75A"/>
</g>
<path d="M1541.44 398.315C1508.71 430.851 1468.29 454.606 1423.94 467.375C1379.26 480.236 1332.05 481.529 1286.73 471.133C1242.04 460.974 1200.63 439.699 1166.35 409.279C1162.05 405.656 1157.86 401.625 1153.85 397.61L1541.44 398.315ZM1541.44 398.315L1723.45 580.378C1674.44 629.691 1645.96 695.793 1643.81 765.322C1641.64 835.18 1666.2 903.232 1712.49 955.59C1716.11 959.885 1720.14 964.076 1724.16 968.091L1724.16 968.092L1789.59 1033.41L1573.94 1249.09L1524.61 1199.75L1523.91 1200.46L1524.61 1199.75C1498.42 1173.57 1477.64 1142.47 1463.47 1108.25C1449.29 1074.03 1442 1037.35 1442 1000.3C1442 963.26 1449.29 926.579 1463.47 892.356C1477.63 858.176 1498.37 827.118 1524.52 800.95C1524.55 800.918 1524.58 800.885 1524.61 800.853L1523.91 800.146L1523.2 799.439C1523.17 799.471 1523.14 799.504 1523.1 799.536L1057.2 1265.59L856.414 1064.77L1322.21 599.088C1322.28 599.019 1322.35 598.95 1322.42 598.881C1322.42 598.881 1322.42 598.881 1322.42 598.881L1321.71 598.174L1321 597.467L1321 597.467C1320.93 597.536 1320.87 597.605 1320.8 597.673C1294.66 623.776 1263.65 644.488 1229.53 658.632C1195.32 672.812 1158.65 680.11 1121.61 680.11C1084.58 680.11 1047.91 672.812 1013.7 658.632C979.489 644.451 948.405 623.668 922.226 597.467L922.226 597.467L872.9 548.126L1088.55 332.414L1153.85 397.609L1541.44 398.315Z" stroke="#FFFFCC" stroke-width="2"/>
<rect x="100.5" y="748.5" width="182" height="79" rx="39.5" stroke="#DADEE4"/>
<path d="M140.832 799.32C139.253 799.32 137.707 799.096 136.192 798.648C134.699 798.179 133.44 797.539 132.416 796.728L134.176 793.496C134.987 794.157 135.968 794.691 137.12 795.096C138.293 795.501 139.509 795.704 140.768 795.704C142.24 795.704 143.392 795.395 144.224 794.776C145.077 794.157 145.504 793.325 145.504 792.28C145.504 791.576 145.323 790.957 144.96 790.424C144.619 789.891 144 789.485 143.104 789.208C142.229 788.931 141.024 788.792 139.488 788.792H134.08L135.232 776.6H148.384V780.088H136.768L138.944 778.104L138.08 787.224L135.904 785.272H140.416C142.635 785.272 144.416 785.571 145.76 786.168C147.125 786.744 148.117 787.555 148.736 788.6C149.376 789.624 149.696 790.797 149.696 792.12C149.696 793.421 149.376 794.616 148.736 795.704C148.096 796.792 147.115 797.667 145.792 798.328C144.491 798.989 142.837 799.32 140.832 799.32ZM166.539 799V776.6H176.331C178.763 776.6 180.897 777.069 182.731 778.008C184.566 778.947 185.995 780.248 187.019 781.912C188.043 783.576 188.555 785.539 188.555 787.8C188.555 790.04 188.043 792.003 187.019 793.688C185.995 795.352 184.566 796.653 182.731 797.592C180.897 798.531 178.763 799 176.331 799H166.539ZM170.699 795.48H176.139C177.825 795.48 179.275 795.16 180.491 794.52C181.729 793.88 182.678 792.984 183.339 791.832C184.022 790.68 184.363 789.336 184.363 787.8C184.363 786.243 184.022 784.899 183.339 783.768C182.678 782.616 181.729 781.72 180.491 781.08C179.275 780.44 177.825 780.12 176.139 780.12H170.699V795.48ZM194.977 799V776.6H199.137V799H194.977ZM204.027 799L214.108 776.6H218.204L228.316 799H223.964L215.292 778.808H216.956L208.316 799H204.027ZM208.668 793.816L209.788 790.552H221.884L223.003 793.816H208.668ZM240.108 799.32C238.359 799.32 236.684 799.075 235.084 798.584C233.484 798.072 232.215 797.421 231.276 796.632L232.716 793.4C233.612 794.104 234.722 794.691 236.044 795.16C237.367 795.629 238.722 795.864 240.108 795.864C241.282 795.864 242.231 795.736 242.956 795.48C243.682 795.224 244.215 794.883 244.556 794.456C244.898 794.008 245.068 793.507 245.068 792.952C245.068 792.269 244.823 791.725 244.332 791.32C243.842 790.893 243.202 790.563 242.412 790.328C241.644 790.072 240.78 789.837 239.82 789.624C238.882 789.411 237.932 789.165 236.972 788.888C236.034 788.589 235.17 788.216 234.38 787.768C233.612 787.299 232.983 786.68 232.492 785.912C232.002 785.144 231.756 784.163 231.756 782.968C231.756 781.752 232.076 780.643 232.716 779.64C233.378 778.616 234.37 777.805 235.692 777.208C237.036 776.589 238.732 776.28 240.78 776.28C242.124 776.28 243.458 776.451 244.78 776.792C246.103 777.133 247.255 777.624 248.236 778.264L246.924 781.496C245.922 780.899 244.887 780.461 243.82 780.184C242.754 779.885 241.73 779.736 240.748 779.736C239.596 779.736 238.658 779.875 237.932 780.152C237.228 780.429 236.706 780.792 236.364 781.24C236.044 781.688 235.884 782.2 235.884 782.776C235.884 783.459 236.119 784.013 236.588 784.44C237.079 784.845 237.708 785.165 238.476 785.4C239.266 785.635 240.14 785.869 241.1 786.104C242.06 786.317 243.01 786.563 243.948 786.84C244.908 787.117 245.772 787.48 246.54 787.928C247.33 788.376 247.959 788.984 248.428 789.752C248.919 790.52 249.164 791.491 249.164 792.664C249.164 793.859 248.834 794.968 248.172 795.992C247.532 796.995 246.54 797.805 245.196 798.424C243.852 799.021 242.156 799.32 240.108 799.32Z" fill="#193151"/>
<path d="M167.68 376.92C158.827 376.92 150.613 375.48 143.04 372.6C135.573 369.72 129.067 365.667 123.52 360.44C118.08 355.213 113.813 349.08 110.72 342.04C107.733 335 106.24 327.32 106.24 319C106.24 310.68 107.733 303 110.72 295.96C113.813 288.92 118.133 282.787 123.68 277.56C129.227 272.333 135.733 268.28 143.2 265.4C150.667 262.52 158.773 261.08 167.52 261.08C176.373 261.08 184.48 262.52 191.84 265.4C199.307 268.28 205.76 272.333 211.2 277.56C216.747 282.787 221.067 288.92 224.16 295.96C227.253 302.893 228.8 310.573 228.8 319C228.8 327.32 227.253 335.053 224.16 342.2C221.067 349.24 216.747 355.373 211.2 360.6C205.76 365.72 199.307 369.72 191.84 372.6C184.48 375.48 176.427 376.92 167.68 376.92ZM167.52 354.84C172.533 354.84 177.12 353.987 181.28 352.28C185.547 350.573 189.28 348.12 192.48 344.92C195.68 341.72 198.133 337.933 199.84 333.56C201.653 329.187 202.56 324.333 202.56 319C202.56 313.667 201.653 308.813 199.84 304.44C198.133 300.067 195.68 296.28 192.48 293.08C189.387 289.88 185.707 287.427 181.44 285.72C177.173 284.013 172.533 283.16 167.52 283.16C162.507 283.16 157.867 284.013 153.6 285.72C149.44 287.427 145.76 289.88 142.56 293.08C139.36 296.28 136.853 300.067 135.04 304.44C133.333 308.813 132.48 313.667 132.48 319C132.48 324.227 133.333 329.08 135.04 333.56C136.853 337.933 139.307 341.72 142.4 344.92C145.6 348.12 149.333 350.573 153.6 352.28C157.867 353.987 162.507 354.84 167.52 354.84ZM291.32 375V358.2L289.72 354.52V324.44C289.72 319.107 288.067 314.947 284.76 311.96C281.56 308.973 276.6 307.48 269.88 307.48C265.293 307.48 260.76 308.227 256.28 309.72C251.907 311.107 248.173 313.027 245.08 315.48L236.12 298.04C240.813 294.733 246.467 292.173 253.08 290.36C259.693 288.547 266.413 287.64 273.24 287.64C286.36 287.64 296.547 290.733 303.8 296.92C311.053 303.107 314.68 312.76 314.68 325.88V375H291.32ZM265.08 376.28C258.36 376.28 252.6 375.16 247.8 372.92C243 370.573 239.32 367.427 236.76 363.48C234.2 359.533 232.92 355.107 232.92 350.2C232.92 345.08 234.147 340.6 236.6 336.76C239.16 332.92 243.16 329.933 248.6 327.8C254.04 325.56 261.133 324.44 269.88 324.44H292.76V339H272.6C266.733 339 262.68 339.96 260.44 341.88C258.307 343.8 257.24 346.2 257.24 349.08C257.24 352.28 258.467 354.84 260.92 356.76C263.48 358.573 266.947 359.48 271.32 359.48C275.48 359.48 279.213 358.52 282.52 356.6C285.827 354.573 288.227 351.64 289.72 347.8L293.56 359.32C291.747 364.867 288.44 369.08 283.64 371.96C278.84 374.84 272.653 376.28 265.08 376.28ZM358.23 376.28C350.87 376.28 343.777 375.427 336.95 373.72C330.23 371.907 324.897 369.667 320.95 367L329.27 349.08C333.217 351.533 337.857 353.56 343.19 355.16C348.63 356.653 353.963 357.4 359.19 357.4C364.95 357.4 369.003 356.707 371.35 355.32C373.803 353.933 375.03 352.013 375.03 349.56C375.03 347.533 374.07 346.04 372.15 345.08C370.337 344.013 367.883 343.213 364.79 342.68C361.697 342.147 358.283 341.613 354.55 341.08C350.923 340.547 347.243 339.853 343.51 339C339.777 338.04 336.363 336.653 333.27 334.84C330.177 333.027 327.67 330.573 325.75 327.48C323.937 324.387 323.03 320.387 323.03 315.48C323.03 310.04 324.577 305.24 327.67 301.08C330.87 296.92 335.457 293.667 341.43 291.32C347.403 288.867 354.55 287.64 362.87 287.64C368.737 287.64 374.71 288.28 380.79 289.56C386.87 290.84 391.937 292.707 395.99 295.16L387.67 312.92C383.51 310.467 379.297 308.813 375.03 307.96C370.87 307 366.817 306.52 362.87 306.52C357.323 306.52 353.27 307.267 350.71 308.76C348.15 310.253 346.87 312.173 346.87 314.52C346.87 316.653 347.777 318.253 349.59 319.32C351.51 320.387 354.017 321.24 357.11 321.88C360.203 322.52 363.563 323.107 367.19 323.64C370.923 324.067 374.657 324.76 378.39 325.72C382.123 326.68 385.483 328.067 388.47 329.88C391.563 331.587 394.07 333.987 395.99 337.08C397.91 340.067 398.87 344.013 398.87 348.92C398.87 354.253 397.27 359 394.07 363.16C390.87 367.213 386.23 370.413 380.15 372.76C374.177 375.107 366.87 376.28 358.23 376.28ZM406.27 375V288.92H431.23V375H406.27ZM418.75 276.92C414.163 276.92 410.43 275.587 407.55 272.92C404.67 270.253 403.23 266.947 403.23 263C403.23 259.053 404.67 255.747 407.55 253.08C410.43 250.413 414.163 249.08 418.75 249.08C423.337 249.08 427.07 250.36 429.95 252.92C432.83 255.373 434.27 258.573 434.27 262.52C434.27 266.68 432.83 270.147 429.95 272.92C427.177 275.587 423.443 276.92 418.75 276.92ZM475.355 376.28C467.995 376.28 460.902 375.427 454.075 373.72C447.355 371.907 442.022 369.667 438.075 367L446.395 349.08C450.342 351.533 454.982 353.56 460.315 355.16C465.755 356.653 471.088 357.4 476.315 357.4C482.075 357.4 486.128 356.707 488.475 355.32C490.928 353.933 492.155 352.013 492.155 349.56C492.155 347.533 491.195 346.04 489.275 345.08C487.462 344.013 485.008 343.213 481.915 342.68C478.822 342.147 475.408 341.613 471.675 341.08C468.048 340.547 464.368 339.853 460.635 339C456.902 338.04 453.488 336.653 450.395 334.84C447.302 333.027 444.795 330.573 442.875 327.48C441.062 324.387 440.155 320.387 440.155 315.48C440.155 310.04 441.702 305.24 444.795 301.08C447.995 296.92 452.582 293.667 458.555 291.32C464.528 288.867 471.675 287.64 479.995 287.64C485.862 287.64 491.835 288.28 497.915 289.56C503.995 290.84 509.062 292.707 513.115 295.16L504.795 312.92C500.635 310.467 496.422 308.813 492.155 307.96C487.995 307 483.942 306.52 479.995 306.52C474.448 306.52 470.395 307.267 467.835 308.76C465.275 310.253 463.995 312.173 463.995 314.52C463.995 316.653 464.902 318.253 466.715 319.32C468.635 320.387 471.142 321.24 474.235 321.88C477.328 322.52 480.688 323.107 484.315 323.64C488.048 324.067 491.782 324.76 495.515 325.72C499.248 326.68 502.608 328.067 505.595 329.88C508.688 331.587 511.195 333.987 513.115 337.08C515.035 340.067 515.995 344.013 515.995 348.92C515.995 354.253 514.395 359 511.195 363.16C507.995 367.213 503.355 370.413 497.275 372.76C491.302 375.107 483.995 376.28 475.355 376.28Z" fill="#09ACE2"/>
<path d="M106.3 513V471H125.14C129.98 471 133.7 471.98 136.3 473.94C138.9 475.86 140.2 478.5 140.2 481.86C140.2 484.14 139.68 486.06 138.64 487.62C137.64 489.18 136.28 490.38 134.56 491.22C132.84 492.06 130.98 492.48 128.98 492.48L130.06 490.68C132.46 490.68 134.58 491.1 136.42 491.94C138.26 492.78 139.72 494.02 140.8 495.66C141.88 497.26 142.42 499.26 142.42 501.66C142.42 505.26 141.06 508.06 138.34 510.06C135.66 512.02 131.66 513 126.34 513H106.3ZM112.3 508.14H126.1C129.42 508.14 131.96 507.58 133.72 506.46C135.48 505.34 136.36 503.58 136.36 501.18C136.36 498.74 135.48 496.96 133.72 495.84C131.96 494.72 129.42 494.16 126.1 494.16H111.76V489.3H124.6C127.64 489.3 130 488.74 131.68 487.62C133.36 486.5 134.2 484.82 134.2 482.58C134.2 480.34 133.36 478.66 131.68 477.54C130 476.42 127.64 475.86 124.6 475.86H112.3V508.14ZM147.87 513V468.48H153.63V513H147.87ZM175.248 513.36C172.048 513.36 169.208 512.66 166.728 511.26C164.248 509.86 162.288 507.94 160.848 505.5C159.408 503.02 158.688 500.22 158.688 497.1C158.688 493.94 159.408 491.14 160.848 488.7C162.288 486.26 164.248 484.36 166.728 483C169.208 481.6 172.048 480.9 175.248 480.9C178.408 480.9 181.228 481.6 183.708 483C186.228 484.36 188.188 486.26 189.588 488.7C191.028 491.1 191.748 493.9 191.748 497.1C191.748 500.26 191.028 503.06 189.588 505.5C188.188 507.94 186.228 509.86 183.708 511.26C181.228 512.66 178.408 513.36 175.248 513.36ZM175.248 508.32C177.288 508.32 179.108 507.86 180.708 506.94C182.348 506.02 183.628 504.72 184.548 503.04C185.468 501.32 185.928 499.34 185.928 497.1C185.928 494.82 185.468 492.86 184.548 491.22C183.628 489.54 182.348 488.24 180.708 487.32C179.108 486.4 177.288 485.94 175.248 485.94C173.208 485.94 171.388 486.4 169.788 487.32C168.188 488.24 166.908 489.54 165.948 491.22C164.988 492.86 164.508 494.82 164.508 497.1C164.508 499.34 164.988 501.32 165.948 503.04C166.908 504.72 168.188 506.02 169.788 506.94C171.388 507.86 173.208 508.32 175.248 508.32ZM210.634 525C207.714 525 204.874 524.58 202.114 523.74C199.394 522.94 197.174 521.78 195.454 520.26L198.214 515.82C199.694 517.1 201.514 518.1 203.674 518.82C205.834 519.58 208.094 519.96 210.454 519.96C214.214 519.96 216.974 519.08 218.734 517.32C220.494 515.56 221.374 512.88 221.374 509.28V502.56L221.974 496.26L221.674 489.9V481.2H227.134V508.68C227.134 514.28 225.734 518.4 222.934 521.04C220.134 523.68 216.034 525 210.634 525ZM209.914 511.68C206.834 511.68 204.074 511.04 201.634 509.76C199.234 508.44 197.314 506.62 195.874 504.3C194.474 501.98 193.774 499.3 193.774 496.26C193.774 493.18 194.474 490.5 195.874 488.22C197.314 485.9 199.234 484.1 201.634 482.82C204.074 481.54 206.834 480.9 209.914 480.9C212.634 480.9 215.114 481.46 217.354 482.58C219.594 483.66 221.374 485.34 222.694 487.62C224.054 489.9 224.734 492.78 224.734 496.26C224.734 499.7 224.054 502.56 222.694 504.84C221.374 507.12 219.594 508.84 217.354 510C215.114 511.12 212.634 511.68 209.914 511.68ZM210.574 506.64C212.694 506.64 214.574 506.2 216.214 505.32C217.854 504.44 219.134 503.22 220.054 501.66C221.014 500.1 221.494 498.3 221.494 496.26C221.494 494.22 221.014 492.42 220.054 490.86C219.134 489.3 217.854 488.1 216.214 487.26C214.574 486.38 212.694 485.94 210.574 485.94C208.454 485.94 206.554 486.38 204.874 487.26C203.234 488.1 201.934 489.3 200.974 490.86C200.054 492.42 199.594 494.22 199.594 496.26C199.594 498.3 200.054 500.1 200.974 501.66C201.934 503.22 203.234 504.44 204.874 505.32C206.554 506.2 208.454 506.64 210.574 506.64ZM242.733 513L261.753 471H267.693L286.773 513H280.473L263.493 474.36H265.893L248.913 513H242.733ZM250.833 502.5L252.453 497.7H276.093L277.833 502.5H250.833ZM306.058 513.36C303.418 513.36 300.998 512.76 298.798 511.56C296.638 510.32 294.898 508.5 293.578 506.1C292.298 503.7 291.658 500.7 291.658 497.1C291.658 493.5 292.278 490.5 293.518 488.1C294.798 485.7 296.518 483.9 298.678 482.7C300.878 481.5 303.338 480.9 306.058 480.9C309.178 480.9 311.938 481.58 314.338 482.94C316.738 484.3 318.638 486.2 320.038 488.64C321.438 491.04 322.138 493.86 322.138 497.1C322.138 500.34 321.438 503.18 320.038 505.62C318.638 508.06 316.738 509.96 314.338 511.32C311.938 512.68 309.178 513.36 306.058 513.36ZM289.198 524.64V481.2H294.718V489.78L294.358 497.16L294.958 504.54V524.64H289.198ZM305.578 508.32C307.618 508.32 309.438 507.86 311.038 506.94C312.678 506.02 313.958 504.72 314.878 503.04C315.838 501.32 316.318 499.34 316.318 497.1C316.318 494.82 315.838 492.86 314.878 491.22C313.958 489.54 312.678 488.24 311.038 487.32C309.438 486.4 307.618 485.94 305.578 485.94C303.578 485.94 301.758 486.4 300.118 487.32C298.518 488.24 297.238 489.54 296.278 491.22C295.358 492.86 294.898 494.82 294.898 497.1C294.898 499.34 295.358 501.32 296.278 503.04C297.238 504.72 298.518 506.02 300.118 506.94C301.758 507.86 303.578 508.32 305.578 508.32ZM343.957 513.36C341.317 513.36 338.897 512.76 336.697 511.56C334.537 510.32 332.797 508.5 331.477 506.1C330.197 503.7 329.557 500.7 329.557 497.1C329.557 493.5 330.177 490.5 331.417 488.1C332.697 485.7 334.417 483.9 336.577 482.7C338.777 481.5 341.237 480.9 343.957 480.9C347.077 480.9 349.837 481.58 352.237 482.94C354.637 484.3 356.537 486.2 357.937 488.64C359.337 491.04 360.037 493.86 360.037 497.1C360.037 500.34 359.337 503.18 357.937 505.62C356.537 508.06 354.637 509.96 352.237 511.32C349.837 512.68 347.077 513.36 343.957 513.36ZM327.097 524.64V481.2H332.617V489.78L332.257 497.16L332.857 504.54V524.64H327.097ZM343.477 508.32C345.517 508.32 347.337 507.86 348.937 506.94C350.577 506.02 351.857 504.72 352.777 503.04C353.737 501.32 354.217 499.34 354.217 497.1C354.217 494.82 353.737 492.86 352.777 491.22C351.857 489.54 350.577 488.24 348.937 487.32C347.337 486.4 345.517 485.94 343.477 485.94C341.477 485.94 339.657 486.4 338.017 487.32C336.417 488.24 335.137 489.54 334.177 491.22C333.257 492.86 332.797 494.82 332.797 497.1C332.797 499.34 333.257 501.32 334.177 503.04C335.137 504.72 336.417 506.02 338.017 506.94C339.657 507.86 341.477 508.32 343.477 508.32Z" fill="#193151"/>
<rect x="100" y="100" width="619" height="86" rx="16" fill="#FFE75A"/>
<path d="M127.78 156V130.8H137.608C139.816 130.8 141.7 131.148 143.26 131.844C144.82 132.54 146.02 133.548 146.86 134.868C147.7 136.188 148.12 137.76 148.12 139.584C148.12 141.408 147.7 142.98 146.86 144.3C146.02 145.596 144.82 146.604 143.26 147.324C141.7 148.02 139.816 148.368 137.608 148.368H129.76L131.38 146.676V156H127.78ZM131.38 147.036L129.76 145.236H137.5C139.804 145.236 141.544 144.744 142.72 143.76C143.92 142.776 144.52 141.384 144.52 139.584C144.52 137.784 143.92 136.392 142.72 135.408C141.544 134.424 139.804 133.932 137.5 133.932H129.76L131.38 132.132V147.036ZM158.409 156V130.8H168.237C170.445 130.8 172.329 131.148 173.889 131.844C175.449 132.54 176.649 133.548 177.489 134.868C178.329 136.188 178.749 137.76 178.749 139.584C178.749 141.408 178.329 142.98 177.489 144.3C176.649 145.596 175.449 146.592 173.889 147.288C172.329 147.984 170.445 148.332 168.237 148.332H160.389L162.009 146.676V156H158.409ZM175.257 156L168.849 146.856H172.701L179.181 156H175.257ZM162.009 147.036L160.389 145.272H168.129C170.433 145.272 172.173 144.78 173.349 143.796C174.549 142.788 175.149 141.384 175.149 139.584C175.149 137.784 174.549 136.392 173.349 135.408C172.173 134.424 170.433 133.932 168.129 133.932H160.389L162.009 132.132V147.036ZM200.941 156.288C199.021 156.288 197.233 155.964 195.577 155.316C193.945 154.668 192.529 153.768 191.329 152.616C190.129 151.44 189.193 150.072 188.521 148.512C187.849 146.952 187.513 145.248 187.513 143.4C187.513 141.552 187.849 139.848 188.521 138.288C189.193 136.728 190.129 135.372 191.329 134.22C192.529 133.044 193.945 132.132 195.577 131.484C197.209 130.836 198.997 130.512 200.941 130.512C202.861 130.512 204.625 130.836 206.233 131.484C207.865 132.108 209.281 133.008 210.481 134.184C211.705 135.336 212.641 136.692 213.289 138.252C213.961 139.812 214.297 141.528 214.297 143.4C214.297 145.272 213.961 146.988 213.289 148.548C212.641 150.108 211.705 151.476 210.481 152.652C209.281 153.804 207.865 154.704 206.233 155.352C204.625 155.976 202.861 156.288 200.941 156.288ZM200.941 153.084C202.333 153.084 203.617 152.844 204.793 152.364C205.993 151.884 207.025 151.212 207.889 150.348C208.777 149.46 209.461 148.428 209.941 147.252C210.445 146.076 210.697 144.792 210.697 143.4C210.697 142.008 210.445 140.724 209.941 139.548C209.461 138.372 208.777 137.352 207.889 136.488C207.025 135.6 205.993 134.916 204.793 134.436C203.617 133.956 202.333 133.716 200.941 133.716C199.525 133.716 198.217 133.956 197.017 134.436C195.841 134.916 194.809 135.6 193.921 136.488C193.033 137.352 192.337 138.372 191.833 139.548C191.353 140.724 191.113 142.008 191.113 143.4C191.113 144.792 191.353 146.076 191.833 147.252C192.337 148.428 193.033 149.46 193.921 150.348C194.809 151.212 195.841 151.884 197.017 152.364C198.217 152.844 199.525 153.084 200.941 153.084ZM231.298 156L220.21 130.8H224.098L234.286 154.056H232.054L242.314 130.8H245.914L234.862 156H231.298ZM249.503 156L260.915 130.8H264.479L275.927 156H272.147L261.959 132.816H263.399L253.211 156H249.503ZM254.363 149.7L255.335 146.82H269.519L270.563 149.7H254.363ZM299.354 156V130.8H309.974C312.662 130.8 315.026 131.328 317.066 132.384C319.13 133.44 320.726 134.916 321.854 136.812C323.006 138.708 323.582 140.904 323.582 143.4C323.582 145.896 323.006 148.092 321.854 149.988C320.726 151.884 319.13 153.36 317.066 154.416C315.026 155.472 312.662 156 309.974 156H299.354ZM302.954 152.868H309.758C311.846 152.868 313.646 152.472 315.158 151.68C316.694 150.888 317.882 149.784 318.722 148.368C319.562 146.928 319.982 145.272 319.982 143.4C319.982 141.504 319.562 139.848 318.722 138.432C317.882 137.016 316.694 135.912 315.158 135.12C313.646 134.328 311.846 133.932 309.758 133.932H302.954V152.868ZM337.372 141.672H350.332V144.732H337.372V141.672ZM337.696 152.868H352.384V156H334.096V130.8H351.88V133.932H337.696V152.868ZM370.558 156.288C368.638 156.288 366.802 156 365.05 155.424C363.298 154.824 361.918 154.056 360.91 153.12L362.242 150.312C363.202 151.152 364.426 151.848 365.914 152.4C367.402 152.952 368.95 153.228 370.558 153.228C372.022 153.228 373.21 153.06 374.122 152.724C375.034 152.388 375.706 151.932 376.138 151.356C376.57 150.756 376.786 150.084 376.786 149.34C376.786 148.476 376.498 147.78 375.922 147.252C375.37 146.724 374.638 146.304 373.726 145.992C372.838 145.656 371.854 145.368 370.774 145.128C369.694 144.888 368.602 144.612 367.498 144.3C366.418 143.964 365.422 143.544 364.51 143.04C363.622 142.536 362.902 141.864 362.35 141.024C361.798 140.16 361.522 139.056 361.522 137.712C361.522 136.416 361.858 135.228 362.53 134.148C363.226 133.044 364.282 132.168 365.698 131.52C367.138 130.848 368.962 130.512 371.17 130.512C372.634 130.512 374.086 130.704 375.526 131.088C376.966 131.472 378.214 132.024 379.27 132.744L378.082 135.624C377.002 134.904 375.862 134.388 374.662 134.076C373.462 133.74 372.298 133.572 371.17 133.572C369.754 133.572 368.59 133.752 367.678 134.112C366.766 134.472 366.094 134.952 365.662 135.552C365.254 136.152 365.05 136.824 365.05 137.568C365.05 138.456 365.326 139.164 365.878 139.692C366.454 140.22 367.186 140.64 368.074 140.952C368.986 141.264 369.982 141.552 371.062 141.816C372.142 142.056 373.222 142.332 374.302 142.644C375.406 142.956 376.402 143.364 377.29 143.868C378.202 144.372 378.934 145.044 379.486 145.884C380.038 146.724 380.314 147.804 380.314 149.124C380.314 150.396 379.966 151.584 379.27 152.688C378.574 153.768 377.494 154.644 376.03 155.316C374.59 155.964 372.766 156.288 370.558 156.288ZM393.849 141.672H406.809V144.732H393.849V141.672ZM394.173 152.868H408.861V156H390.573V130.8H408.357V133.932H394.173V152.868ZM419.69 156V130.8H422.642L439.31 151.5H437.762V130.8H441.362V156H438.41L421.742 135.3H423.29V156H419.69ZM460.931 156L449.843 130.8H453.731L463.919 154.056H461.687L471.947 130.8H475.547L464.495 156H460.931ZM494.89 156.288C492.97 156.288 491.182 155.964 489.526 155.316C487.894 154.668 486.478 153.768 485.278 152.616C484.078 151.44 483.142 150.072 482.47 148.512C481.798 146.952 481.462 145.248 481.462 143.4C481.462 141.552 481.798 139.848 482.47 138.288C483.142 136.728 484.078 135.372 485.278 134.22C486.478 133.044 487.894 132.132 489.526 131.484C491.158 130.836 492.946 130.512 494.89 130.512C496.81 130.512 498.574 130.836 500.182 131.484C501.814 132.108 503.23 133.008 504.43 134.184C505.654 135.336 506.59 136.692 507.238 138.252C507.91 139.812 508.246 141.528 508.246 143.4C508.246 145.272 507.91 146.988 507.238 148.548C506.59 150.108 505.654 151.476 504.43 152.652C503.23 153.804 501.814 154.704 500.182 155.352C498.574 155.976 496.81 156.288 494.89 156.288ZM494.89 153.084C496.282 153.084 497.566 152.844 498.742 152.364C499.942 151.884 500.974 151.212 501.838 150.348C502.726 149.46 503.41 148.428 503.89 147.252C504.394 146.076 504.646 144.792 504.646 143.4C504.646 142.008 504.394 140.724 503.89 139.548C503.41 138.372 502.726 137.352 501.838 136.488C500.974 135.6 499.942 134.916 498.742 134.436C497.566 133.956 496.282 133.716 494.89 133.716C493.474 133.716 492.166 133.956 490.966 134.436C489.79 134.916 488.758 135.6 487.87 136.488C486.982 137.352 486.286 138.372 485.782 139.548C485.302 140.724 485.062 142.008 485.062 143.4C485.062 144.792 485.302 146.076 485.782 147.252C486.286 148.428 486.982 149.46 487.87 150.348C488.758 151.212 489.79 151.884 490.966 152.364C492.166 152.844 493.474 153.084 494.89 153.084ZM518.749 156V130.8H522.349V152.868H535.993V156H518.749ZM550.532 156L539.444 130.8H543.332L553.52 154.056H551.288L561.548 130.8H565.148L554.096 156H550.532ZM576.638 141.672H589.598V144.732H576.638V141.672ZM576.962 152.868H591.65V156H573.362V130.8H591.146V133.932H576.962V152.868ZM602.479 156V130.8H613.099C615.787 130.8 618.151 131.328 620.191 132.384C622.255 133.44 623.851 134.916 624.979 136.812C626.131 138.708 626.707 140.904 626.707 143.4C626.707 145.896 626.131 148.092 624.979 149.988C623.851 151.884 622.255 153.36 620.191 154.416C618.151 155.472 615.787 156 613.099 156H602.479ZM606.079 152.868H612.883C614.971 152.868 616.771 152.472 618.283 151.68C619.819 150.888 621.007 149.784 621.847 148.368C622.687 146.928 623.107 145.272 623.107 143.4C623.107 141.504 622.687 139.848 621.847 138.432C621.007 137.016 619.819 135.912 618.283 135.12C616.771 134.328 614.971 133.932 612.883 133.932H606.079V152.868ZM648.597 156.288C646.677 156.288 644.889 155.964 643.233 155.316C641.601 154.668 640.185 153.768 638.985 152.616C637.785 151.44 636.849 150.072 636.177 148.512C635.505 146.952 635.169 145.248 635.169 143.4C635.169 141.552 635.505 139.848 636.177 138.288C636.849 136.728 637.785 135.372 638.985 134.22C640.185 133.044 641.601 132.132 643.233 131.484C644.865 130.836 646.653 130.512 648.597 130.512C650.517 130.512 652.281 130.836 653.889 131.484C655.521 132.108 656.937 133.008 658.137 134.184C659.361 135.336 660.297 136.692 660.945 138.252C661.617 139.812 661.953 141.528 661.953 143.4C661.953 145.272 661.617 146.988 660.945 148.548C660.297 150.108 659.361 151.476 658.137 152.652C656.937 153.804 655.521 154.704 653.889 155.352C652.281 155.976 650.517 156.288 648.597 156.288ZM648.597 153.084C649.989 153.084 651.273 152.844 652.449 152.364C653.649 151.884 654.681 151.212 655.545 150.348C656.433 149.46 657.117 148.428 657.597 147.252C658.101 146.076 658.353 144.792 658.353 143.4C658.353 142.008 658.101 140.724 657.597 139.548C657.117 138.372 656.433 137.352 655.545 136.488C654.681 135.6 653.649 134.916 652.449 134.436C651.273 133.956 649.989 133.716 648.597 133.716C647.181 133.716 645.873 133.956 644.673 134.436C643.497 134.916 642.465 135.6 641.577 136.488C640.689 137.352 639.993 138.372 639.489 139.548C639.009 140.724 638.769 142.008 638.769 143.4C638.769 144.792 639.009 146.076 639.489 147.252C639.993 148.428 640.689 149.46 641.577 150.348C642.465 151.212 643.497 151.884 644.673 152.364C645.873 152.844 647.181 153.084 648.597 153.084ZM672.456 156V130.8H682.284C684.492 130.8 686.376 131.148 687.936 131.844C689.496 132.54 690.696 133.548 691.536 134.868C692.376 136.188 692.796 137.76 692.796 139.584C692.796 141.408 692.376 142.98 691.536 144.3C690.696 145.596 689.496 146.592 687.936 147.288C686.376 147.984 684.492 148.332 682.284 148.332H674.436L676.056 146.676V156H672.456ZM689.304 156L682.896 146.856H686.748L693.228 156H689.304ZM676.056 147.036L674.436 145.272H682.176C684.48 145.272 686.22 144.78 687.396 143.796C688.596 142.788 689.196 141.384 689.196 139.584C689.196 137.784 688.596 136.392 687.396 135.408C686.22 134.424 684.48 133.932 682.176 133.932H674.436L676.056 132.132V147.036Z" fill="#183051"/>
</g>
<defs>
<filter id="filter0_f_1402_48" x="870.587" y="-473.413" width="1306.83" height="1306.83" filterUnits="userSpaceOnUse" color-interpolation-filters="sRGB">
<feFlood flood-opacity="0" result="BackgroundImageFix"/>
<feBlend mode="normal" in="SourceGraphic" in2="BackgroundImageFix" result="shape"/>
<feGaussianBlur stdDeviation="150" result="effect1_foregroundBlur_1402_48"/>
</filter>
<filter id="filter1_f_1402_48" x="679.027" y="-405.949" width="1008.85" height="1008.69" filterUnits="userSpaceOnUse" color-interpolation-filters="sRGB">
<feFlood flood-opacity="0" result="BackgroundImageFix"/>
<feBlend mode="normal" in="SourceGraphic" in2="BackgroundImageFix" result="shape"/>
<feGaussianBlur stdDeviation="150" result="effect1_foregroundBlur_1402_48"/>
</filter>
<clipPath id="clip0_1402_48">
<rect width="1600" height="960" fill="white"/>
</clipPath>
</defs>
</svg>
