<svg width="41" height="41" viewBox="0 0 41 41" fill="none" xmlns="http://www.w3.org/2000/svg">
<path d="M29.8763 0H11.1022C4.9706 0 0 4.9706 0 11.1022V29.8763C0 36.0079 4.9706 40.9785 11.1022 40.9785H29.8763C36.0079 40.9785 40.9785 36.0079 40.9785 29.8763V11.1022C40.9785 4.9706 36.0079 0 29.8763 0Z" fill="#FFC344"/>
<path d="M21.2204 26.2782L35.406 29.1765L21.2204 37.9833V26.2782ZM35.9593 27.1525L21.2074 2.99731L21.2204 24.1401L35.9593 27.1525ZM19.0133 24.1401V2.99731L4.20752 27.1611L19.0133 24.1401ZM19.0133 37.9833V26.2782L4.78459 29.1808L19.0133 37.9833Z" fill="white"/>
</svg>
